<?xml version="1.0" encoding="UTF-8"?>
<svg width="145px" height="145px" viewBox="0 0 145 145" version="1.1" xmlns="http://www.w3.org/2000/svg" xmlns:xlink="http://www.w3.org/1999/xlink">
    <!-- Generator: Sketch 63.1 (92452) - https://sketch.com -->
    <title>页面 2</title>
    <desc>Created with Sketch.</desc>
    <defs>
        <path d="M72.5,2 C110.331505,2 141,32.6684946 141,70.5 C141,101.165536 120.849477,127.124665 93.0671525,135.858665 C93.0632124,135.875306 91.8729292,136.268464 89.3988495,136.901794 C89.1701504,136.960338 88.8717884,137.032691 88.5037636,137.118851 C88.0409727,137.231167 87.5769131,137.337113 87.1110856,137.43832 C86.8159852,137.50267 86.4974557,137.573397 86.1559433,137.648679 C86.4725442,137.57465 86.792229,137.507595 87.1110856,137.43832 C87.6526537,137.315345 88.116731,137.209462 88.5037636,137.118851 C90.0454514,136.751419 91.5674215,136.330139 93.0671525,135.858665 C102.573135,101.55876 106.675311,79.8109819 106.675311,67.0217986 C106.675311,52.9846533 99.7403285,46.7165465 85.870364,48.2174783 C81.2974366,50.0574338 78.1300537,51.6619071 76.3682152,53.0308983 C72.4483674,56.0767151 63.3157426,63.2055823 62.291204,64.0146749 C61.1169536,64.9419971 53.4637267,68.3948576 53.3439019,68.4164345 C48.4743226,69.2933024 42.836221,69.5436472 38.3208274,70.5247738 C29.1720203,72.5126708 20.0490798,77.1118229 18.5690421,77.9522265 C15.5996803,79.6383069 11,84.6677525 11,84.6677525 C11,84.6677525 21.8882333,85.4971124 25.0654883,89.497872 C26.5103293,91.3171977 24.4296354,96.2535718 26.4960558,101.979158 C27.1420092,103.768949 28.5484675,105.736458 30.7154307,107.881685 C30.7163358,106.239225 31.1205525,104.945713 31.9280808,104.001149 C33.6244523,102.016908 33.5404395,100.618155 37.0593761,97.7953876 C38.614232,96.5481368 43.1081002,94.4299323 44.9702113,92.868105 C49.8118746,88.8072075 55.7444265,85.6580462 60.8729384,80.653038 C63.8698901,77.7282584 68.4647864,73.1845119 74.6576273,67.0217986 C72.203904,70.1658419 68.0817629,75.0856264 62.291204,81.7811523 C58.1236183,86.6000614 48.8369323,91.5708944 41.1403841,99.2544557 C40.0096609,100.383271 38.2851839,101.821103 37.0593761,104.001149 C36.1189885,105.673588 32.2077744,108.421859 34.7004845,110.021033 C36.3622913,111.087149 40.9147872,113.003206 48.3579721,115.769206 C52.8219522,117.172853 56.5339935,117.74399 59.4940962,117.482616 C62.4541988,117.221243 65.7179038,116.185078 69.2852112,114.374123 C70.9492521,112.506722 72.7400575,109.352164 74.6576273,104.91045 C76.5751971,100.468735 78.620282,92.7589696 80.7928821,81.7811523 C79.1913065,92.7511449 77.7164176,100.892508 76.3682152,106.205241 C75.0200129,111.517975 73.2254107,116.260387 70.9844085,120.432477 C73.9168234,119.11504 76.5843514,119.656555 78.9869926,122.057022 C80.1787259,123.247677 82.5683762,128.444896 86.1559433,137.648679 C81.7403092,138.531705 77.1748427,139 72.5,139 C34.6684946,139 4,108.331505 4,70.5 C4,32.6684946 34.6684946,2 72.5,2 Z" id="path-1"></path>
        <filter x="-5.1%" y="-3.6%" width="110.2%" height="110.2%" filterUnits="objectBoundingBox" id="filter-2">
            <feOffset dx="0" dy="2" in="SourceAlpha" result="shadowOffsetOuter1"></feOffset>
            <feGaussianBlur stdDeviation="2" in="shadowOffsetOuter1" result="shadowBlurOuter1"></feGaussianBlur>
            <feColorMatrix values="0 0 0 0 0   0 0 0 0 0   0 0 0 0 0  0 0 0 0.5 0" type="matrix" in="shadowBlurOuter1"></feColorMatrix>
        </filter>
    </defs>
    <g id="页面-2" stroke="none" stroke-width="1" fill="none" fill-rule="evenodd">
        <g id="形状结合">
            <use fill="black" fill-opacity="1" filter="url(#filter-2)" xlink:href="#path-1"></use>
            <use fill="#552626" fill-rule="evenodd" xlink:href="#path-1"></use>
        </g>
        <path d="M91.5,16 L118,36.6206897 C109.166667,40.2068966 100.333333,42 91.5,42 C82.6666667,42 73.8333333,40.2068966 65,36.6206897 L91.5,16 Z" id="三角形" fill="#FFFFFF"></path>
    </g>
</svg>